<svg height="410pt" viewBox="-7 0 410 410.69715" width="410pt" xmlns="http://www.w3.org/2000/svg"><path d="m372.257812 42.371094c-10.984374-10.984375-28.792968-10.984375-39.777343 0l-7.785157 7.785156-7.78125-7.785156c-10.988281-10.984375-28.792968-10.984375-39.777343 0-10.988281 10.988281-10.988281 28.792968 0 39.777344l7.78125 7.785156 39.777343 39.777344 47.5625-47.5625c10.980469-10.984376 10.980469-28.792969 0-39.777344zm0 0" fill="#ff927d"/><path d="m372.257812 42.371094 4.824219-4.828125c-6.804687-6.8125-15.792969-10.242188-24.714843-10.234375-8.921876-.007813-17.90625 3.425781-24.714844 10.234375l-2.957032 2.957031-2.953124-2.957031c-6.808594-6.8125-15.792969-10.242188-24.71875-10.238281-8.921876-.007813-17.90625 3.425781-24.710938 10.238281-6.8125 6.808593-10.25 15.792969-10.242188 24.714843-.007812 8.921876 3.429688 17.910157 10.242188 24.714844h-.003906l7.78125 7.78125v.003906l39.777344 39.777344c1.273437 1.269532 3.03125 2 4.828124 2 1.796876 0 3.558594-.730468 4.828126-2l47.5625-47.5625c6.808593-6.804687 10.246093-15.792968 10.234374-24.714844.011719-8.921874-3.425781-17.90625-10.234374-24.714843l-9.65625 9.65625c4.171874 4.175781 6.230468 9.589843 6.238281 15.0625-.011719 5.472656-2.066407 10.882812-6.238281 15.058593l-42.734376 42.734376-34.949218-34.949219h.003906l-7.78125-7.785157h-.003906c-4.171875-4.175781-6.230469-9.585937-6.238282-15.058593.007813-5.472657 2.066407-10.882813 6.242188-15.0625 4.175781-4.171875 9.585938-6.234375 15.058594-6.238281 5.472656.007812 10.886718 2.066406 15.0625 6.238281l7.777344 7.78125c1.289062 1.292969 3.003906 2 4.828124 2 1.828126 0 3.539063-.707031 4.828126-2l7.785156-7.78125c4.175781-4.171875 9.585937-6.234375 15.0625-6.238281 5.476562.007812 10.886718 2.066406 15.0625 6.238281zm0 0" fill="#54596e"/><path d="m389.464844 211.628906s-75.09375-61.441406-136.535156 20.480469c0 0-54.613282-47.789063-116.054688 0l-6.824219-116.054687s-3.019531-4.148438-7.699219-10.195313l3.734376.382813s24.1875 0 28.214843-9.039063l13.421875 12.375c5.304688 4.460937 13.199219 3.894531 17.816406-1.28125l33.191407-37.210937c4.019531-4.503907 4.347656-11.207032.789062-16.089844l-37-48.167969-108.835937 49.703125s-4.035156 1.78125-5.078125 4.910156c-6.824219 20.476563-61.4375 218.453125-61.4375 232.105469v15.847656c0 2.949219 1.316406 5.710938 3.640625 7.53125 2.960937 2.320313 17.691406 6.382813 23.664062 10.753907 25.769532 18.84375 65.863282 51.804687 109.226563 61.441406 61.441406 13.652344 136.535156-6.828125 136.535156-6.828125s47.785156 27.308593 109.226563 20.480469v-191.144532" fill="#ffd578"/><g fill="#54596e"><path d="m393.785156 206.34375c-.28125-.226562-7.40625-6.039062-19.160156-11.886719-11.75-5.832031-28.183594-11.761719-47.09375-11.773437-12.585938-.007813-26.261719 2.6875-39.945312 9.773437-13.691407 7.074219-27.320313 18.484375-40.117188 35.554688l5.460938 4.097656 4.496093-5.136719c-.304687-.261718-6.773437-5.894531-17.816406-11.558594-11.039063-5.648437-26.722656-11.363281-45.335937-11.371093-18.605469-.035157-40.03125 5.867187-61.585938 22.675781l4.191406 5.390625 6.8125-.402344-6.824218-116.054687c-.078126-1.292969-.53125-2.566406-1.296876-3.617188-.03125-.039062-3.085937-4.234375-7.816406-10.351562l-5.398437 4.175781-.691407 6.792969 3.734376.378906.691406.035156c.222656-.003906 6.53125.011719 13.757812-1.226562 3.625-.632813 7.484375-1.554688 11.140625-3.183594 1.828125-.820312 3.621094-1.828125 5.296875-3.203125 1.660156-1.371094 3.226563-3.164063 4.253906-5.46875l-6.234374-2.78125-4.625 5.019531 13.417968 12.375.234375.207032c3.660157 3.078124 8.1875 4.609374 12.636719 4.605468 5.390625.007813 10.804688-2.234375 14.667969-6.566406v-.003906l33.191406-37.210938v.003906c3.304687-3.699218 4.992187-8.398437 4.988281-13.082031.003906-4.039062-1.253906-8.125-3.777344-11.578125l-.101562-.132812-37-48.171875c-1.933594-2.519531-5.359375-3.371094-8.25-2.050781l-108.832031 49.707031 2.835937 6.207031-2.753906-6.246094c-.292969.132813-1.675781.742188-3.433594 2.023438-1.703125 1.300781-4.054687 3.246094-5.367187 6.972656v-.003906c-.925781 2.789062-2.515625 8.105468-4.679688 15.550781-7.535156 25.984375-21.746093 77.207031-34.09375 123.496094-6.171875 23.144531-11.875 45.042969-16.046875 61.953125-2.089844 8.457031-3.792968 15.664062-4.988281 21.203125-.597656 2.773437-1.070313 5.128906-1.40625 7.066406-.328125 1.984375-.554687 3.347656-.574219 4.996094v15.847656c-.007812 4.988281 2.269532 9.792969 6.261719 12.90625 1.058594.8125 1.902344 1.246094 2.828125 1.707031 3.117188 1.507813 7.242188 2.941406 11.390625 4.585938 4.074219 1.574218 8.136719 3.457031 9.621094 4.597656 12.738281 9.308594 29.375 22.402344 48.398437 34.433594 19.042969 12.027344 40.523438 23.070312 63.378906 28.164062 16 3.550782 32.683594 4.851563 48.734376 4.855469 48.125-.019531 90.746093-11.6875 91.078124-11.761719l-1.800781-6.585937-3.390625 5.929687c.585938.292969 39.222656 22.425782 92.6875 22.472656 6.679688 0 13.589844-.347656 20.679688-1.136718 3.75-.414063 6.449218-3.789063 6.03125-7.535156-.414063-3.75-3.789063-6.449219-7.535156-6.03125-6.566407.726562-12.972657 1.050781-19.175782 1.050781-24.816406.003906-46.429687-5.207031-61.785156-10.425781-7.671875-2.605469-13.78125-5.207032-17.929688-7.140626-2.074218-.964843-3.660156-1.765624-4.710937-2.308593l-1.164063-.621094-.269531-.148437-.054687-.03125c-1.5625-.890626-3.449219-1.132813-5.183594-.660157l-.425781.113281c-4.484375 1.195313-43.976563 11.183594-87.058594 11.167969-15.308594 0-31.050781-1.257812-45.773437-4.53125-20.503907-4.542969-40.753907-14.800781-59.042969-26.375-18.304688-11.566406-34.601563-24.375-47.632813-33.910156-2.160156-1.566406-4.511718-2.757813-7.003906-3.902344-3.71875-1.691406-7.734375-3.175781-11.027344-4.445312-1.636718-.628907-3.09375-1.203125-4.144531-1.667969l-1.203125-.570312-.238281-.132813-.78125 1.269531.914062-1.167968-.132812-.101563-.78125 1.269531.917969-1.167968c-.65625-.523438-1.019532-1.25-1.027344-2.160157v-15.851562c.003906-.332031.222656-1.980469.644531-4.160157 1.578125-8.363281 5.800781-25.746093 11.289063-47.074218 8.238281-32.039063 19.363281-73.238282 29.019531-108.1875 4.828125-17.476563 9.289062-33.390625 12.835937-45.816406 3.535156-12.394532 6.203125-21.425782 7.300782-24.707032v-.003906l-1.230469-.410156 1.117187.671875.113282-.261719-1.230469-.410156 1.117187.671875-.179687-.105469.167969.121094.011718-.015625-.179687-.105469.167969.121094.902343-.753906.539063-.316407.109375-.054687-1.09375-2.28125 1.019531 2.3125.074219-.03125-1.09375-2.28125 1.019531 2.3125.082031-.035156 103.894531-47.449219 33.6875 43.863281 5.414063-4.160156-5.511719 4.023437c.777344 1.066407 1.148438 2.285157 1.152344 3.53125-.003906 1.445313-.507812 2.851563-1.523438 3.988281l-33.191406 37.210938h.003906c-1.195312 1.335938-2.804687 1.996094-4.480468 2.003906-1.378906-.003906-2.710938-.449218-3.851563-1.402344l-4.390625 5.226563 4.625-5.019531-13.417968-12.375c-1.613282-1.484375-3.863282-2.109375-6.007813-1.667969s-3.964844 1.90625-4.855469 3.90625l-.070312.097656c-.203125.335938-1.609375 1.394531-3.820313 2.175781-3.289062 1.234376-7.992187 2.007813-11.710937 2.355469-1.863282.179688-3.5.273438-4.648438.316407l-1.328125.039062-.40625.007812v6.824219l.691407-6.789062-3.734376-.382813c-2.726562-.277344-5.328124 1.082032-6.660156 3.476563-1.328125 2.394531-1.105468 5.324219.570313 7.492187 2.308593 2.988282 4.210937 5.507813 5.53125 7.273438 1.320312 1.765625 2.042969 2.761718 2.046875 2.761718l5.523437-4.015624-6.816406.402343 6.828125 116.050781c.148438 2.523438 1.695312 4.773438 3.996094 5.816407 2.300781 1.042969 5.015625.722656 7.011718-.828125 19.402344-15.050782 37.417969-19.765625 53.203126-19.800782 15.769531-.007812 29.414062 4.898438 39.109374 9.867188 4.84375 2.480469 8.683594 4.964844 11.273438 6.796875 1.296875.917969 2.277344 1.671875 2.917969 2.179687l.699219.566407.148437.128906.023437.019531 1.703126-1.96875-1.714844 1.957032.011718.011718 1.703126-1.96875-1.714844 1.957032c1.429687 1.253906 3.316406 1.851562 5.203125 1.652343 1.894531-.195312 3.613281-1.171875 4.753906-2.691406 11.777344-15.699219 23.816406-25.589844 35.46875-31.621094 11.65625-6.019531 22.992187-8.238281 33.671875-8.246093 15.988281-.015626 30.519531 5.117187 41.011719 10.34375 5.242187 2.605468 9.464843 5.21875 12.335937 7.152343 1.4375.96875 2.535156 1.765625 3.261719 2.308594l.796875.609375.175781.140625.027344.019531c2.917969 2.386719 7.21875 1.957032 9.605469-.960937 2.386718-2.917969 1.957031-7.21875-.960938-9.605469zm0 0"/><path d="m123.222656 266.242188c1.140625.011718 2.847656-.332032 4.5625-1.328126 2.597656-1.503906 5.15625-4.167968 7.753906-8.875 2.597657-4.738281 5.300782-11.644531 7.960938-22.277343.914062-3.65625-1.308594-7.363281-4.964844-8.277344-3.660156-.914063-7.367187 1.308594-8.28125 4.96875-3.261718 13.136719-6.511718 19.21875-8.222656 21.453125l-.917969 1.050781-.140625.121094-.023437.019531 2.273437 3.390625v-3.902343c-1.3125-.023438-2.230468.457031-2.273437.511718l2.273437 3.390625v-3.902343c-3.769531 0-6.824218 3.058593-6.824218 6.828124 0 3.769532 3.054687 6.828126 6.824218 6.828126zm0 0"/><path d="m280.238281 266.242188c.0625-1.734376-.890625-17.464844-22.480469-38.960938-2.667968-2.664062-6.988281-2.664062-9.65625 0-2.664062 2.667969-2.664062 6.988281 0 9.65625 9.703126 9.707031 14.285157 17.503906 16.472657 22.605469 1.09375 2.554687 1.59375 4.441406 1.820312 5.585937l.179688 1.144532.011719.132812 3.492187-.167969h-3.496094l.003907.167969 3.492187-.167969h-3.496094c0 3.769531 3.054688 6.828125 6.828125 6.828125 3.769532 0 6.828125-3.054687 6.828125-6.824218zm0 0"/><path d="m341.675781 314.027344c-.003906.847656.175781 2.742187 1.269531 5.101562 1.632813 3.570313 5.246094 7.925782 12.191407 11.839844 6.96875 3.9375 17.304687 7.617188 33.203125 10.273438 3.71875.621093 7.238281-1.890626 7.855468-5.609376.621094-3.71875-1.890624-7.238281-5.609374-7.859374-19.777344-3.273438-28.890626-8.179688-32.59375-11.308594-1.871094-1.566406-2.457032-2.644532-2.652344-3.054688l-.078125-.199218-.050781.015624.050781-.011718v-.003906l-.050781.015624.050781-.011718-3.449219.816406h3.519531l-.070312-.816406-3.449219.816406h3.519531c0-3.769531-3.058593-6.828125-6.828125-6.828125-3.769531 0-6.828125 3.054687-6.828125 6.824219zm0 0"/></g><path d="m89.082031 300.375c-1.195312 0-2.40625.3125-3.503906.972656-3.234375 1.941406-4.28125 6.132813-2.34375 9.367188.300781.484375 8.484375 14.046875 26.019531 27.6875 17.480469 13.617187 44.53125 27.242187 81.640625 27.242187h.089844c11.132813 0 23.15625-1.214843 36.070313-3.980469 3.6875-.792968 6.035156-4.417968 5.246093-8.105468-.6875-3.207032-3.519531-5.398438-6.667969-5.398438-.476562 0-.957031.050782-1.4375.152344-12.019531 2.578125-23.070312 3.683594-33.210937 3.683594-33.765625-.023438-57.632813-12.195313-73.351563-24.375-7.839843-6.089844-13.589843-12.1875-17.335937-16.710938-1.875-2.257812-3.25-4.125-4.136719-5.398437-.445312-.632813-.765625-1.121094-.96875-1.433594l-.210937-.332031-.039063-.0625c-1.28125-2.132813-3.542968-3.308594-5.859375-3.308594" fill="#ddbc76"/></svg>